<?xml version="1.0" standalone="no"?>
<!DOCTYPE svg PUBLIC "-//W3C//DTD SVG 20010904//EN"
 "http://www.w3.org/TR/2001/REC-SVG-20010904/DTD/svg10.dtd">
<svg version="1.0" xmlns="http://www.w3.org/2000/svg"
 width="282.000000pt" height="281.000000pt" viewBox="0 0 282.000000 281.000000"
 preserveAspectRatio="xMidYMid meet">

<g transform="translate(0.000000,281.000000) scale(0.100000,-0.100000)"
fill="#2962FF" stroke="none">
<path d="M1190 2439 c-259 -19 -517 -117 -580 -222 -133 -217 412 -422 936
-352 221 29 391 93 477 180 75 74 72 140 -8 214 -143 132 -476 205 -825 180z"/>
<path d="M2050 1888 c-72 -60 -227 -112 -610 -203 -445 -106 -637 -188 -757
-324 -36 -42 -80 -132 -92 -189 -12 -56 -15 -132 -5 -132 3 0 20 11 37 24 89
67 280 139 512 195 72 17 216 51 320 76 327 78 477 138 562 221 55 55 65 94
61 236 l-3 116 -25 -20z"/>
<path d="M2045 1404 c-41 -32 -173 -93 -265 -122 -115 -37 -233 -67 -479 -122
-500 -113 -685 -209 -715 -370 -8 -46 25 -113 76 -153 l37 -30 80 42 c110 57
246 100 578 182 420 104 561 158 653 249 28 27 50 61 58 86 13 45 17 254 5
254 -5 0 -17 -8 -28 -16z"/>
<path d="M2056 941 c-10 -16 -128 -78 -211 -111 -44 -18 -244 -74 -445 -125
-201 -51 -405 -109 -455 -128 -90 -35 -90 -35 -60 -47 17 -6 75 -21 130 -33
84 -17 136 -21 320 -21 192 0 233 2 320 22 214 48 368 129 409 216 11 24 16
63 16 135 0 91 -8 119 -24 92z"/>
</g>
</svg>
